<svg xmlns="http://www.w3.org/2000/svg" version="1.1" xmlns:xlink="http://www.w3.org/1999/xlink" xmlns:svgjs="http://svgjs.dev/svgjs" width="200" height="200" preserveAspectRatio="none" viewBox="0 0 200 200"><g mask="url(&quot;#SvgjsMask1011&quot;)" fill="none"><path d="M50 48.31C30.42 26.63 13.92 15.11 13.92 0C13.92 -9.04 31.96 0 50 0C75 0 75 0 100 0C123.31 0 138.39 -11.89 146.62 0C155.7 13.11 136.66 24.69 134.62 50C132.63 74.69 133.51 75.83 138.55 100C141.2 112.71 144.13 123.75 150 123.75C155.94 123.75 154.21 110.59 162.18 100C179.21 77.34 189.19 57.25 200 57.25C208.1 57.25 200 78.63 200 100C200 125 200 125 200 150C200 175 210.8 185.8 200 200C191.8 210.8 179.48 203.88 162 200C154.48 198.33 154.8 188.89 150 188.89C146.46 188.89 150.57 198.83 145.31 200C125.57 204.39 122.66 200 100 200C75 200 75 200 50 200C34.09 200 31.24 205.94 18.18 200C6.24 194.57 4.69 190.18 0 177.27C-4.4 165.18 0 163.63 0 150C0 125 0 125 0 100C0 85.41 -9.02 78.46 0 70.83C15.98 57.31 25.99 66.16 50 57.69C55.53 55.74 59.09 52.64 59.09 50C59.09 47.95 53 51.63 50 48.31" stroke="rgba(245, 227, 13, 1)" stroke-width="2"></path><path d="M200 4.55C197.18 4.55 191.67 1.21 191.67 0C191.67 -1.06 197.31 -1.47 200 0C201.47 0.8 201.35 4.55 200 4.55" stroke="rgba(245, 227, 13, 1)" stroke-width="2"></path><path d="M50 27.12C35.97 19.8 29.75 8.48 29.75 0C29.75 -5.08 39.88 0 50 0C75 0 75 0 100 0C114.87 0 129.73 -7.08 129.73 0C129.73 11.25 119.18 30.15 100 36.67C79.32 43.71 71.1 38.13 50 27.12" stroke="rgba(245, 227, 13, 1)" stroke-width="2"></path><path d="M63.21 100C80.12 81.05 83.55 64.55 100 64.55C113.69 64.55 114.3 81 123.49 100C134.95 123.72 140.72 124.83 141.3 150C141.87 174.83 139.62 183.25 125.78 200C118.97 208.25 112.89 200 100 200C75 200 75 200 50 200C45.45 200 43.91 203.15 40.91 200C20.1 178.15 -0.03 171.04 2.38 150C4.52 131.34 28.84 137.99 50 120.59C59.25 112.99 55.12 109.07 63.21 100" stroke="rgba(245, 227, 13, 1)" stroke-width="2"></path><path d="M178.21 100C186.51 86.01 193.77 75.36 200 75.36C204.67 75.36 200 87.68 200 100C200 125 200 125 200 150C200 170.94 209.02 191.89 200 191.89C186.87 191.89 161.45 174.19 155.71 150C150.55 128.24 164.37 123.33 178.21 100" stroke="rgba(245, 227, 13, 1)" stroke-width="2"></path><path d="M50 5.93C46.55 4.93 45.57 1.85 45.57 0C45.57 -1.11 47.78 0 50 0C75 0 75 0 100 0C106.42 0 112.84 -3.06 112.84 0C112.84 4.86 108.98 14.98 100 15.83C77.56 17.95 73.76 12.84 50 5.93" stroke="rgba(245, 227, 13, 1)" stroke-width="2"></path><path d="M86.79 100C86.79 92.15 94.09 87.27 100 87.27C104.91 87.27 108.43 92.89 108.43 100C108.43 116.76 105.31 135 100 135C94.49 135 86.79 116.01 86.79 100" stroke="rgba(245, 227, 13, 1)" stroke-width="2"></path><path d="M194.23 100C194.86 95.81 198.35 93.48 200 93.48C201.24 93.48 200 96.74 200 100C200 125 200 125 200 150C200 154.06 201.75 158.11 200 158.11C197.46 158.11 191.98 155.54 191.43 150C189.1 126.49 190.58 124.07 194.23 100" stroke="rgba(245, 227, 13, 1)" stroke-width="2"></path><path d="M82.61 200C82.61 190.6 93.69 171.43 100 171.43C105.51 171.43 106.25 188.23 106.25 200C106.25 202.52 103.13 200 100 200C91.31 200 82.61 204.89 82.61 200" stroke="rgba(245, 227, 13, 1)" stroke-width="2"></path></g><defs><mask id="SvgjsMask1011"><rect width="200" height="200" fill="#ffffff"></rect></mask></defs></svg>